:SAMPLES-PER-SECOND 30
:FULLY-SPECIFIED
:DEGREES
346
root  -5.2353 32.9613 -2.96297 9.03624 41.623 4.4472
RightUpLeg  -21.7599 -26.814 -2.17369
RightLeg  65.6199 2.41564 4.39156
RightFoot  3.24651 0.00225773 0.41773
RightToes  -37.5209 -0.198988 -0.300694
Spine  -0.481863 2.57823 -1.65361
Spine1  -1.00952 5.21494 -2.64842
HEad  -79.3194 -12.1155 16.2488
LeftShoulder1  -1.94126e-019 -3.10601e-018 -2.51263e-017
LeftArm  -7.74985 4.38998 -47.3679
LeftForeArm  27.1068 -26.8248 -4.66472
LeftHand  -0.579552 -7.03009 5.7627
RightShoulder  -4.96962e-017 0 -2.36833e-017
RightArm  -0.696971 -2.72137 70.6256
RightForeArm  63.4896 25.8871 2.45118
RightHand  -0.737752 0.25846 -15.2016
LeftUpLeg  -24.0044 17.5894 -6.59554
LeftLeg  40.0638 11.9587 8.67371
LeftFoot  -8.87399 -0.180975 -2.17042
LeftToes  -2.91918 1.70063e-006 7.6642e-008
347
root  -5.12916 33.161 -2.57826 8.26347 38.9458 3.24644
RightUpLeg  -24.2393 -26.834 -0.483805
RightLeg  64.675 1.64713 2.84542
RightFoot  0.99051 0.00213047 0.220842
RightToes  -34.6681 -0.177351 -0.283066
Spine  0.0743872 2.02438 -1.4088
Spine1  0.0416746 4.19264 -2.22691
HEad  -82.3663 -10.625 17.5966
LeftShoulder1  -1.94126e-019 -3.10601e-018 -2.51263e-017
LeftArm  6.20278 6.69468 -55.8433
LeftForeArm  37.2949 -24.7781 -3.83342
LeftHand  -0.817969 -7.85088 7.52338
RightShoulder  -4.96962e-017 0 -2.36833e-017
RightArm  -33.2538 -11.2971 68.1798
RightForeArm  74.287 10.082 1.54061
RightHand  -0.473894 -2.50526 -18.8006
LeftUpLeg  -22.4243 17.8149 -5.41969
LeftLeg  38.6814 14.1358 9.6979
LeftFoot  -8.29091 -0.184808 -2.38786
LeftToes  -4.81439 1.70063e-006 7.6642e-008
348
root  -5.08387 33.3112 -2.2565 8.13022 35.9489 2.14487
RightUpLeg  -27.1721 -25.8254 1.0756
RightLeg  62.9169 -1.15723 -2.05201
RightFoot  -2.70174 -0.00750784 0.249489
RightToes  -29.6677 -0.14164 -0.24965
Spine  0.248107 1.18122 -1.14279
Spine1  0.453658 2.36246 -1.67316
HEad  -85.016 -9.07005 17.7464
LeftShoulder1  -1.94126e-019 -3.10601e-018 -2.51263e-017
LeftArm  14.8097 8.84646 -63.5625
LeftForeArm  36.1978 -28.0084 -4.06517
LeftHand  -0.892883 -8.01632 8.08282
RightShoulder  -4.96962e-017 0 -2.36833e-017
RightArm  -53.6993 -21.4868 62.5885
RightForeArm  58.5223 8.82156 1.46792
RightHand  0.0394694 -5.7467 -17.2607
LeftUpLeg  -21.6473 18.196 -4.48232
LeftLeg  37.6116 16.4044 10.7517
LeftFoot  -7.67189 -0.184758 -2.59342
LeftToes  -6.84713 1.70063e-006 7.6642e-008
349
root  -5.07143 33.4544 -1.9441 8.25789 32.9341 1.21297
RightUpLeg  -29.6212 -23.9445 2.08269
RightLeg  60.1095 -4.0884 -6.21906
RightFoot  -3.92262 0.000243601 0.593824
RightToes  -22.2078 -0.0941051 -0.194332
Spine  0.272344 -0.0621736 -1.01746
Spine1  0.611808 -0.339195 -1.36976
HEad  -85.7519 -7.95445 17.0652
LeftShoulder1  -1.94126e-019 -3.10601e-018 -2.51263e-017
LeftArm  17.3506 9.4197 -69.8266
LeftForeArm  39.6497 -32.6368 -4.93414
LeftHand  -0.555413 -11.2619 4.28188
RightShoulder  -4.96962e-017 0 -2.36833e-017
RightArm  -57.9818 -29.6153 55.2692
RightForeArm  33.3928 10.4309 1.67168
RightHand  0.32999 -8.95072 -11.7137
LeftUpLeg  -20.9551 18.3451 -3.678
LeftLeg  36.677 18.8615 11.8491
LeftFoot  -7.00494 -0.179417 -2.76914
LeftToes  -8.46781 1.70063e-006 7.6642e-008
350
root  -5.10895 33.5885 -1.59912 8.53188 29.4639 0.674667
RightUpLeg  -31.3109 -20.7024 2.36243
RightLeg  56.188 -6.0143 -7.84323
RightFoot  -3.37573 0.000796977 0.624482
RightToes  -15.0194 -0.0554682 -0.135621
Spine  0.166757 -1.30783 -1.06787
Spine1  0.51212 -3.00233 -1.40241
HEad  -85.1018 -7.29493 15.7816
LeftShoulder1  -1.94126e-019 -3.10601e-018 -2.51263e-017
LeftArm  20.9265 7.72381 -74.3002
LeftForeArm  42.4463 -36.7333 -5.8018
LeftHand  -0.562209 -10.771 4.44242
RightShoulder  -4.96962e-017 0 -2.36833e-017
RightArm  -54.8992 -35.0635 46.249
RightForeArm  20.2823 11.7655 1.95131
RightHand  0.474925 -10.6435 -11.2616
LeftUpLeg  -20.1706 20.4587 -3.04897
LeftLeg  35.5655 20.0793 12.05
LeftFoot  -6.03682 -0.142738 -2.54486
LeftToes  -10.9557 1.70063e-006 7.6642e-008
351
root  -5.19977 33.6975 -1.19944 8.8976 25.6051 0.54422
RightUpLeg  -32.5389 -18.0532 2.43559
RightLeg  51.5398 -6.65962 -7.35161
RightFoot  -3.20327 9.99512e-005 0.601942
RightToes  -13.7291 -0.0493274 -0.124592
Spine  0.0946393 -2.3997 -1.17948
Spine1  0.447429 -5.20572 -1.60412
HEad  -83.5616 -6.99419 13.6085
LeftShoulder1  -1.94126e-019 -3.10601e-018 -2.51263e-017
LeftArm  23.596 3.91782 -77.3144
LeftForeArm  42.8811 -39.259 -6.46639
LeftHand  -0.702946 -9.49149 5.86621
RightShoulder  -4.96962e-017 0 -2.36833e-017
RightArm  -51.1891 -37.2912 36.5961
RightForeArm  19.3904 12.727 2.08754
RightHand  0.823333 -12.03 -14.8661
LeftUpLeg  -19.2051 23.9114 -2.56419
LeftLeg  34.4846 20.137 11.5937
LeftFoot  -4.70006 -0.0867784 -1.95273
LeftToes  -15.2112 1.70063e-006 7.6642e-008
352
root  -5.37022 33.7875 -0.783777 9.15562 21.5962 0.290466
RightUpLeg  -33.714 -17.5891 3.51023
RightLeg  46.7802 -6.51069 -6.09206
RightFoot  -2.71671 -0.00287095 0.47287
RightToes  -14.5853 -0.0465193 -0.131926
Spine  0.143487 -3.20381 -1.17275
Spine1  0.597062 -6.79273 -1.59115
HEad  -82.4465 -7.51811 11.1314
LeftShoulder1  -1.94126e-019 -3.10601e-018 -2.51263e-017
LeftArm  25.1698 -1.31683 -79.2152
LeftForeArm  41.5122 -40.8141 -7.0033
LeftHand  -0.778411 -8.20234 7.00797
RightShoulder  -4.96962e-017 0 -2.36833e-017
RightArm  -52.1806 -37.3876 27.8911
RightForeArm  23.339 13.2742 2.03327
RightHand  0.799071 -11.2887 -16.1656
LeftUpLeg  -18.2222 27.0873 -1.90911
LeftLeg  33.6234 20.8015 11.5557
LeftFoot  -3.29682 -0.0445196 -1.38531
LeftToes  -18.801 1.70063e-006 7.6642e-008
